<svg xmlns="http://www.w3.org/2000/svg" viewBox="0 0 97.347 40.84"><g fill="#595959"><path d="M71.908 4.621h-1.345A.887.887 0 0171 3.867c.256-.191.585-.345.594-.655a.314.314 0 00-.332-.353c-.253 0-.33.217-.338.5H70.6a.68.68 0 01.679-.768.589.589 0 01.633.612c0 .637-.856.774-.963 1.13h.96zm.455-1.992h1.019v.29H72.6l-.1.507h.006a.494.494 0 01.363-.151.6.6 0 01.616.667.674.674 0 01-.681.714.621.621 0 01-.689-.606h.321a.335.335 0 00.363.335c.273 0 .365-.2.365-.438a.37.37 0 00-.374-.415.307.307 0 00-.318.182h-.321zm2.682.996c0 .452-.115 1.036-.681 1.036s-.681-.584-.681-1.036.115-1.036.681-1.036.681.583.681 1.036zm-.321 0c0-.416-.079-.766-.36-.766s-.36.35-.36.766.078.765.36.765.36-.347.36-.765zm.616.612h.391v.384a.451.451 0 01-.38.45V4.9a.263.263 0 00.183-.276h-.194zm2.052-.612c0 .452-.116 1.036-.682 1.036s-.681-.584-.681-1.036.115-1.036.681-1.036.682.583.682 1.036zm-.321 0c0-.416-.079-.766-.361-.766s-.36.35-.36.766.079.765.36.765.361-.347.361-.765zm1.885 0c0 .452-.116 1.036-.681 1.036s-.682-.584-.682-1.036.116-1.036.682-1.036.681.583.681 1.036zm-.321 0c0-.416-.079-.766-.36-.766s-.361.35-.361.766.079.765.361.765.36-.347.36-.765zm1.885 0c0 .452-.116 1.036-.681 1.036s-.681-.584-.681-1.036.115-1.036.681-1.036.681.583.681 1.036zm-.321 0c0-.416-.079-.766-.36-.766s-.36.35-.36.766.078.765.36.765.361-.347.361-.765z"/><path d="M97.347 40.84H0V0h97.347zM.84 40h95.667V.84H.84z"/><path d="M27.78 21.838l-.08-9.154h3.633v15.02h-3.292l-5.681-9.053.081 9.053h-3.634v-15.02h3.272l5.701 9.154zm20.998.243a7.63 7.63 0 01-7.508 5.907 7.795 7.795 0 11-.04-15.588 7.621 7.621 0 017.548 5.988H44.8a3.855 3.855 0 00-3.593-2.618 4.137 4.137 0 00-3.975 4.384 4.2 4.2 0 003.995 4.465 3.968 3.968 0 003.573-2.538zm5.722-9.397v9.073a4.907 4.907 0 00.262 1.806 1.669 1.669 0 001.666 1.055 1.589 1.589 0 001.646-.974 5.038 5.038 0 00.241-1.887v-9.073h3.793v9.073c0 2.517-.541 3.633-1.485 4.608a5.521 5.521 0 01-4.155 1.623 5.944 5.944 0 01-4.276-1.6c-1.225-1.361-1.486-2.416-1.486-4.628v-9.076zm15.636 4.567l-1.606 5.236h3.27l-1.666-5.236zM66.9 27.7h-4.111l5.882-15.02h3.272l5.7 15.02h-4.154l-.7-2.172h-5.2L66.9 27.7zM16.463 3.821l-.753-1.233h.408l.531.909.523-.909h.393l-.75 1.233v.796h-.352v-.796zm2.075.06c0-.253-.127-.517-.414-.517s-.413.264-.413.517.127.52.413.52.414-.264.414-.52zm-1.147 0a.735.735 0 111.467 0 .735.735 0 11-1.467 0zm3.009.736h-.315v-.205h-.005a.486.486 0 01-.413.245c-.379 0-.542-.194-.542-.577v-.933h.32v.9c0 .259.1.353.279.353.266 0 .356-.174.356-.4v-.853h.32v1.47zm.338-1.47h.3v.285h.006a.47.47 0 01.425-.324.7.7 0 01.12.009v.312a1.06 1.06 0 00-.137-.014c-.219 0-.394.179-.394.5v.7h-.32V3.147zm2.012.998c.017.187.158.256.329.256.121 0 .331-.026.323-.193s-.241-.191-.475-.245-.466-.136-.466-.434c0-.321.342-.421.607-.421a.537.537 0 01.607.452h-.335c-.028-.154-.154-.2-.295-.2-.093 0-.264.022-.264.15 0 .159.236.182.472.236s.47.139.47.429c0 .35-.349.478-.65.478-.365 0-.638-.165-.643-.512zm2.114-.264a1.132 1.132 0 01-.394.088c-.138.023-.261.074-.261.244 0 .145.182.188.3.188.14 0 .36-.074.36-.278v-.242zm.32.409c0 .08.017.111.076.111a.423.423 0 00.079-.006v.225a.847.847 0 01-.2.037c-.129 0-.222-.046-.247-.179a.742.742 0 01-.5.179.444.444 0 01-.5-.43c0-.366.29-.426.56-.457.23-.043.435-.017.435-.207 0-.168-.171-.2-.3-.2-.18 0-.306.074-.32.233h-.32c.022-.378.34-.489.66-.489.284 0 .582.116.582.426v.757zm.202-1.143h.349l.368 1.129h.005l.354-1.129h.332l-.52 1.47h-.36l-.528-1.47zm1.614 0h.32v1.47H27v-1.47zm0-.559h.32V2.9H27v-.312zm.666.559h.3v.217l.006.005a.52.52 0 01.452-.261.461.461 0 01.514.5v1.009h-.32v-.924c-.006-.23-.095-.329-.284-.329a.356.356 0 00-.351.386v.867h-.32v-1.47zm2.634.703c0-.253-.113-.486-.391-.486s-.382.267-.382.511.115.486.382.486c.284 0 .391-.261.391-.511zm.32.69c0 .441-.256.66-.714.66-.292 0-.621-.114-.649-.458h.32c.04.184.186.216.349.216a.331.331 0 00.374-.375v-.225a.5.5 0 01-.436.259c-.461 0-.652-.352-.652-.773a.676.676 0 01.658-.736.455.455 0 01.43.242v-.2h.32v1.39zm.567-.395c.017.187.157.256.329.256.121 0 .331-.026.323-.193s-.242-.191-.475-.245-.467-.136-.467-.434c0-.321.343-.421.607-.421a.537.537 0 01.608.452h-.335c-.028-.154-.154-.2-.3-.2-.093 0-.264.022-.264.15 0 .159.236.182.472.236s.469.139.469.429c0 .35-.348.478-.649.478-.365 0-.638-.165-.643-.512zm1.855-.998h.238v-.121c0-.375.194-.438.4-.438a.854.854 0 01.225.02v.253a.513.513 0 00-.149-.017c-.087 0-.157.031-.157.153v.15h.272v.242H33.6v1.228h-.32V3.389h-.238v-.242zm2.026.606a.374.374 0 10-.748 0zm-.748.213a.39.39 0 00.391.435.338.338 0 00.354-.244h.3a.638.638 0 01-.658.5.694.694 0 01-.707-.773.7.7 0 111.388.082zm1.965.434c.286 0 .408-.264.408-.52 0-.324-.155-.517-.4-.517-.3 0-.408.27-.408.534s.124.5.4.5zm.715.217h-.3v-.2h-.005a.484.484 0 01-.45.239c-.458 0-.681-.344-.681-.785 0-.531.312-.764.63-.764a.556.556 0 01.483.23h.006v-.75H37v2.03zm1.348-.864a.374.374 0 10-.748 0zm-.748.213a.39.39 0 00.391.435.338.338 0 00.354-.244h.3a.637.637 0 01-.657.5.693.693 0 01-.711-.773.7.7 0 111.388.082zm1.313-.819h.3v.285h.006a.468.468 0 01.424-.324.718.718 0 01.121.009v.312a1.075 1.075 0 00-.138-.014c-.219 0-.393.179-.393.5v.7h-.32V3.147zm1.887.734a1.126 1.126 0 01-.393.088c-.138.023-.262.074-.262.244 0 .145.183.188.3.188.14 0 .359-.074.359-.278v-.242zm.32.409c0 .08.017.111.076.111a.413.413 0 00.079-.006v.225a.848.848 0 01-.2.037.217.217 0 01-.248-.179.738.738 0 01-.5.179.443.443 0 01-.5-.43c0-.366.289-.426.559-.457.231-.043.436-.017.436-.207 0-.168-.171-.2-.3-.2-.18 0-.306.074-.32.233h-.321c.023-.378.341-.489.661-.489.283 0 .581.116.581.426v.757zm.353-1.702h.32v2.029h-.32V2.588zm.677 0h.32v2.029h-.32V2.588zm.509.559h.351l.38 1.1h.01l.368-1.1h.332L43.533 4.7c-.1.265-.18.5-.515.5a1.354 1.354 0 01-.221-.018V4.91a.977.977 0 00.151.02c.149 0 .186-.08.225-.205l.037-.114-.551-1.464zm2.408 0h.321v1.47h-.321v-1.47zm0-.559h.321V2.9h-.321v-.312zm.669.559h.3v.217l.005.005a.522.522 0 01.453-.261.462.462 0 01.514.5v1.009h-.321v-.924c-.005-.23-.1-.329-.283-.329a.356.356 0 00-.352.386v.867h-.32v-1.47zm1.855.998c.017.187.157.256.329.256.121 0 .331-.026.323-.193s-.242-.191-.475-.245-.467-.136-.467-.434c0-.321.343-.421.607-.421a.536.536 0 01.607.452h-.334c-.028-.154-.155-.2-.295-.2-.093 0-.264.022-.264.15 0 .159.236.182.472.236s.469.139.469.429c0 .35-.348.478-.649.478-.365 0-.638-.165-.643-.512zm2.493.472h-.316v-.205a.488.488 0 01-.414.245c-.379 0-.542-.194-.542-.577v-.933h.32v.9c0 .259.1.353.278.353.267 0 .358-.174.358-.4v-.853h.32v1.47zm.337-1.47h.3v.285h.006a.47.47 0 01.424-.324.707.707 0 01.121.009v.312a1.06 1.06 0 00-.137-.014c-.219 0-.394.179-.394.5v.7h-.32V3.147zm1.939.606a.374.374 0 10-.748 0zm-.748.213A.39.39 0 0052 4.4a.339.339 0 00.355-.244h.3a.638.638 0 01-.658.5.694.694 0 01-.711-.773.7.7 0 111.388.082zm1.965.434c.287 0 .408-.264.408-.52 0-.324-.155-.517-.4-.517-.3 0-.407.27-.407.534s.123.5.4.5zm.716.216h-.3v-.2h-.005a.485.485 0 01-.451.239c-.457 0-.68-.344-.68-.785 0-.531.313-.764.63-.764a.559.559 0 01.484.23v-.75h.32v2.031zm.984-1.469h.242v-.44h.321v.44h.288v.242h-.288v.785c0 .133.01.2.154.2a.552.552 0 00.134-.011v.25c-.069.006-.137.017-.207.017-.335 0-.4-.131-.4-.375v-.866h-.242v-.242zm2.162.734c0-.253-.127-.517-.414-.517s-.413.264-.413.517.127.52.413.52.414-.264.414-.52zm-1.147 0a.735.735 0 111.467 0 .735.735 0 11-1.467 0zm3.408 0a1.126 1.126 0 01-.393.088c-.138.023-.261.074-.261.244 0 .145.182.188.3.188.14 0 .359-.074.359-.278v-.242zm.321.409c0 .08.016.111.076.111a.429.429 0 00.079-.006v.225a.865.865 0 01-.2.037.217.217 0 01-.248-.179.738.738 0 01-.5.179.444.444 0 01-.5-.43c0-.366.29-.426.559-.457.231-.043.436-.017.436-.207 0-.168-.171-.2-.3-.2-.181 0-.307.074-.321.233h-.321c.023-.378.341-.489.661-.489.284 0 .582.116.582.426v.757zm.203-1.143h.242v-.44h.32v.44h.289v.242h-.289v.785c0 .133.011.2.154.2a.56.56 0 00.135-.011v.25c-.071.006-.138.017-.208.017-.334 0-.4-.131-.4-.375v-.866h-.242v-.242zm1.871-.559h.321v2.029h-.321V2.588zm1.666 1.165a.374.374 0 10-.747 0zm-.747.213a.389.389 0 00.39.435.339.339 0 00.355-.244h.3a.637.637 0 01-.658.5.693.693 0 01-.71-.773.7.7 0 111.388.082zm2.209-.085a1.127 1.127 0 01-.394.088c-.137.023-.261.074-.261.244 0 .145.183.188.3.188.141 0 .36-.074.36-.278v-.242zm.32.409c0 .08.017.111.076.111a.418.418 0 00.079-.006v.225a.848.848 0 01-.2.037.217.217 0 01-.248-.179.738.738 0 01-.5.179.443.443 0 01-.5-.43c0-.366.289-.426.559-.457.23-.043.435-.017.435-.207 0-.168-.17-.2-.3-.2-.18 0-.306.074-.321.233H64.3c.022-.378.34-.489.661-.489.283 0 .581.116.581.426v.757zm.588-.145c.016.187.157.256.329.256.12 0 .331-.026.323-.193s-.242-.191-.475-.245-.467-.136-.467-.434c0-.321.343-.421.607-.421a.537.537 0 01.608.452h-.335c-.028-.154-.155-.2-.3-.2-.093 0-.264.022-.264.15 0 .159.235.182.472.236s.469.139.469.429c0 .35-.348.478-.648.478-.366 0-.639-.165-.645-.512zm1.069-.998h.242v-.44h.321v.44h.289v.242h-.289v.785c0 .133.011.2.154.2a.56.56 0 00.135-.011v.25c-.07.006-.138.017-.208.017-.334 0-.4-.131-.4-.375v-.866H67.2v-.242zm2.545 1.262c.2-.014.346-.11.346-.338 0-.213-.172-.278-.346-.324v.662zM69.624 2.8c-.2 0-.317.079-.317.278s.159.25.317.29V2.8zm-.36 1.2c0 .25.1.4.36.409v-.687c-.306-.085-.638-.211-.638-.626a.578.578 0 01.638-.556v-.222h.121v.222a.548.548 0 01.615.554h-.32c-.009-.191-.1-.3-.3-.3v.6c.34.091.666.219.666.631a.617.617 0 01-.666.639v.222h-.121v-.221A.626.626 0 0168.944 4zM3.214 7.291a1.149 1.149 0 01-.393.088c-.138.023-.262.074-.262.244 0 .145.183.188.3.188.14 0 .359-.074.359-.278v-.242zm.321.409c0 .08.016.111.076.111a.414.414 0 00.078-.006v.225a.793.793 0 01-.2.037c-.129 0-.222-.046-.247-.179a.742.742 0 01-.5.179.444.444 0 01-.5-.429c0-.367.289-.426.559-.458.231-.043.436-.017.436-.207 0-.168-.172-.2-.3-.2-.18 0-.306.074-.32.233h-.325c.023-.378.341-.489.661-.489.284 0 .582.116.582.426V7.7zm.345-1.143h.3v.217h.006a.518.518 0 01.452-.261.461.461 0 01.514.5v1.014h-.32V7.1c-.006-.23-.1-.329-.284-.329a.356.356 0 00-.348.389v.867h-.32v-1.47zm2.265 1.254c.287 0 .408-.265.408-.52 0-.324-.154-.517-.4-.517-.3 0-.407.269-.407.534s.123.5.4.5zm.717.216h-.3v-.2h-.009a.483.483 0 01-.45.239c-.458 0-.68-.344-.68-.785 0-.531.312-.764.63-.764a.557.557 0 01.483.23h.006V6h.32v2.027zm1.855-1.253c-.27 0-.408.207-.408.52 0 .3.149.517.408.517.292 0 .4-.262.4-.517s-.138-.52-.4-.52zM8 6h.321v.75h.005a.528.528 0 01.433-.23c.458 0 .68.352.68.781 0 .395-.2.768-.626.768a.519.519 0 01-.5-.242v.2H8V6zm2.606 1.291a1.155 1.155 0 01-.394.088c-.137.023-.261.074-.261.244 0 .145.182.188.295.188.14 0 .36-.074.36-.278v-.242zm.32.409c0 .08.017.111.076.111a.423.423 0 00.079-.006v.225a.8.8 0 01-.2.037c-.129 0-.222-.046-.247-.179a.74.74 0 01-.5.179.443.443 0 01-.5-.429c0-.367.289-.426.559-.458.23-.043.435-.017.435-.207 0-.168-.171-.2-.3-.2-.18 0-.307.074-.321.233h-.32c.022-.378.34-.489.66-.489.284 0 .582.116.582.426V7.7zm1.327-.651a.308.308 0 00-.332-.275c-.166 0-.4.088-.4.534 0 .244.107.5.384.5a.349.349 0 00.347-.335h.32a.628.628 0 01-.667.591.688.688 0 01-.7-.759.7.7 0 01.717-.79.59.59 0 01.655.531zm.59-1.051h.32v1.153l.579-.594h.394l-.557.541.61.929h-.391l-.444-.713-.191.187v.526h-.32V5.998zm2.498 1.165a.374.374 0 10-.748 0zm-.748.213a.39.39 0 00.391.435.337.337 0 00.354-.244h.3a.639.639 0 01-.658.5.694.694 0 01-.711-.773.7.7 0 111.388.082zm1.965.435c.287 0 .407-.265.407-.52 0-.324-.154-.517-.4-.517-.3 0-.407.269-.407.534s.124.5.4.5zm.717.216h-.3v-.2h-.006a.481.481 0 01-.449.239c-.458 0-.68-.344-.68-.785 0-.531.312-.764.629-.764a.559.559 0 01.484.23V6h.321v2.027zm1.855-1.253c-.271 0-.408.207-.408.52 0 .3.149.517.408.517.292 0 .4-.262.4-.517s-.137-.52-.4-.52zM18.412 6h.321v.75h.006a.526.526 0 01.433-.23.688.688 0 01.68.781c0 .395-.2.768-.627.768a.517.517 0 01-.5-.242h-.006v.2h-.3V6zm1.549.557h.352l.379 1.1h.008l.368-1.1h.332l-.565 1.55c-.1.263-.179.5-.514.5a1.478 1.478 0 01-.222-.017v-.271a.867.867 0 00.152.02c.149 0 .185-.079.225-.2l.036-.114-.551-1.464zm2.254 0h.242v-.439h.32v.439h.29V6.8h-.29v.785c0 .133.012.2.155.2a.56.56 0 00.135-.011v.25c-.071.006-.138.017-.208.017-.334 0-.4-.131-.4-.375V6.8h-.242v-.243zM23.3 6h.321v.753h.005a.507.507 0 01.436-.233.461.461 0 01.514.5v1.007h-.32V7.1c-.006-.23-.1-.329-.284-.329a.356.356 0 00-.351.386v.867H23.3V6zm2.608 1.163a.374.374 0 10-.748 0zm-.748.213a.39.39 0 00.391.435.338.338 0 00.354-.244h.3a.639.639 0 01-.658.5.694.694 0 01-.711-.773.7.7 0 111.388.082zm1.951-.819h.239v-.122c0-.375.194-.437.4-.437a.846.846 0 01.224.02v.252a.55.55 0 00-.149-.017c-.087 0-.157.032-.157.154v.15h.273V6.8h-.271v1.227h-.32V6.8h-.239v-.243zm2.304 1.47H29.1v-.2a.487.487 0 01-.413.245c-.38 0-.543-.193-.543-.578v-.937h.321v.9c0 .258.1.352.278.352.267 0 .357-.173.357-.4v-.852h.32v1.47zm.346-2.029h.32v2.029h-.32V5.998zm.677 0h.321v2.029h-.321V5.998zm1.307.559h.239v-.122c0-.375.194-.437.4-.437a.846.846 0 01.224.02v.252a.55.55 0 00-.149-.017c-.086 0-.157.032-.157.154v.15h.273V6.8H32.3v1.227h-.32V6.8h-.239v-.243zm1.925.734a1.149 1.149 0 01-.393.088c-.138.023-.262.074-.262.244 0 .145.183.188.3.188.141 0 .36-.074.36-.278v-.242zm.321.409c0 .08.016.111.075.111a.418.418 0 00.079-.006v.225a.8.8 0 01-.2.037c-.129 0-.223-.046-.247-.179a.743.743 0 01-.5.179.443.443 0 01-.5-.429c0-.367.289-.426.559-.458.231-.043.436-.017.436-.207 0-.168-.172-.2-.3-.2-.18 0-.306.074-.32.233h-.321c.023-.378.34-.489.661-.489.284 0 .582.116.582.426V7.7zm.353-1.143h.321v1.47h-.321v-1.47zm0-.559h.321v.307h-.321V6zm.524.559h.241v-.439h.32v.439h.29V6.8h-.29v.785c0 .133.012.2.155.2a.56.56 0 00.135-.011v.25c-.07.006-.138.017-.208.017-.334 0-.4-.131-.4-.375V6.8h-.241v-.243zM35.949 6h.321v.753a.507.507 0 01.436-.233.461.461 0 01.514.5v1.007h-.32V7.1c-.006-.23-.1-.329-.284-.329a.356.356 0 00-.351.386v.867h-.321V6zm3.291 1.291a1.149 1.149 0 01-.393.088c-.138.023-.262.074-.262.244 0 .145.183.188.3.188.141 0 .36-.074.36-.278v-.242zm.321.409c0 .08.016.111.076.111a.409.409 0 00.078-.006v.225a.8.8 0 01-.2.037.217.217 0 01-.248-.179.738.738 0 01-.5.179.443.443 0 01-.5-.429c0-.367.289-.426.56-.458.23-.043.435-.017.435-.207 0-.168-.172-.2-.3-.2-.18 0-.306.074-.32.233h-.321c.023-.378.341-.489.661-.489.284 0 .582.116.582.426V7.7zm.345-1.143h.3v.217h.005a.52.52 0 01.453-.261.461.461 0 01.514.5v1.014h-.32V7.1c-.006-.23-.1-.329-.284-.329a.356.356 0 00-.352.386v.867h-.32V6.557zm2.265 1.254c.287 0 .408-.265.408-.52 0-.324-.155-.517-.4-.517-.3 0-.408.269-.408.534s.124.5.4.5zm.717.216h-.3v-.2h-.005a.483.483 0 01-.45.239c-.458 0-.68-.344-.68-.785 0-.531.312-.764.63-.764a.557.557 0 01.483.23h.006V6h.32v2.027zM45 7.049a.308.308 0 00-.332-.275c-.166 0-.4.088-.4.534 0 .244.107.5.385.5A.348.348 0 0045 7.476h.32a.628.628 0 01-.666.591.688.688 0 01-.7-.759.7.7 0 01.716-.79.589.589 0 01.655.531zm.58-.492h.3v.285h.006a.47.47 0 01.424-.324.718.718 0 01.121.009v.312a1.075 1.075 0 00-.138-.014c-.219 0-.393.179-.393.5v.7h-.32V6.557zm1.94.606a.374.374 0 10-.748 0zm-.748.213a.39.39 0 00.391.435.338.338 0 00.354-.244h.3a.636.636 0 01-.657.5.694.694 0 01-.711-.773.7.7 0 111.388.082zm1.964.435c.287 0 .408-.265.408-.52 0-.324-.154-.517-.4-.517-.3 0-.407.269-.407.534s.123.5.4.5zm.717.216h-.3v-.2h-.006a.483.483 0 01-.449.239c-.459 0-.681-.344-.681-.785 0-.531.312-.764.63-.764a.556.556 0 01.483.23h.006V6h.32v2.027zm.357-1.47h.32v1.47h-.32v-1.47zm0-.559h.32v.307h-.32V6zm.523.559h.241v-.439h.326v.439h.289V6.8H50.9v.785c0 .133.011.2.154.2a.56.56 0 00.135-.011v.25c-.07.006-.137.017-.208.017-.334 0-.4-.131-.4-.375V6.8h-.241v-.243zm2.942.734c0-.253-.127-.517-.412-.517s-.414.264-.414.517.126.52.414.52.412-.265.412-.52zm-1.146 0a.734.734 0 111.466 0 .734.734 0 11-1.466 0zm1.59-.734h.239v-.122c0-.375.194-.437.4-.437a.854.854 0 01.225.02v.252a.56.56 0 00-.149-.017c-.088 0-.157.032-.157.154v.15h.272V6.8h-.272v1.227h-.321V6.8h-.239v-.243zm1.664 0h.241v-.439h.321v.439h.289V6.8h-.289v.785c0 .133.011.2.154.2a.556.556 0 00.135-.011v.25c-.07.006-.137.017-.208.017-.334 0-.4-.131-.4-.375V6.8h-.241v-.243zM56.465 6h.32v.753h.006a.5.5 0 01.436-.233.461.461 0 01.513.5v1.007h-.319V7.1c-.006-.23-.1-.329-.284-.329a.356.356 0 00-.352.386v.867h-.32V6zm2.61 1.163a.374.374 0 10-.747 0zm-.747.213a.39.39 0 00.391.435.338.338 0 00.354-.244h.3a.637.637 0 01-.657.5.694.694 0 01-.712-.773.7.7 0 111.389.082zM60.444 6h.356v1.18c0 .273.016.588.472.588s.472-.315.472-.588V6h.351v1.3a.825.825 0 01-1.647 0V6zm2.007.557h.3v.217h.006a.519.519 0 01.453-.261.462.462 0 01.514.5v1.014h-.321V7.1c0-.23-.095-.329-.284-.329a.356.356 0 00-.351.386v.867h-.32V6.557zm1.621 0h.321v1.47h-.321v-1.47zm0-.559h.321v.307h-.321V6zm.528.559h.242v-.439h.32v.439h.29V6.8h-.29v.785c0 .133.011.2.154.2a.568.568 0 00.136-.011v.25c-.071.006-.138.017-.208.017-.335 0-.4-.131-.4-.375V6.8H64.6v-.243zm2.075.606a.374.374 0 10-.748 0zm-.748.213a.39.39 0 00.391.435.338.338 0 00.354-.244h.3a.638.638 0 01-.658.5.693.693 0 01-.711-.773.7.7 0 111.397.082zm1.965.435c.287 0 .407-.265.407-.52 0-.324-.154-.517-.4-.517-.3 0-.408.269-.408.534s.123.5.4.5zm.716.216h-.3v-.2H68.3a.483.483 0 01-.449.239c-.458 0-.68-.344-.68-.785 0-.531.311-.764.629-.764a.557.557 0 01.483.23h.006V6h.32v2.027zm1.405-.677c0 .313.228.435.509.435.309 0 .425-.153.425-.307a.24.24 0 00-.166-.25c-.141-.054-.323-.091-.6-.167a.515.515 0 01-.444-.515c0-.406.371-.6.733-.6.42 0 .771.225.771.648h-.351c-.018-.261-.192-.357-.433-.357-.163 0-.368.059-.368.264 0 .142.095.221.238.261.032.009.475.126.58.156a.537.537 0 01.39.517c0 .455-.4.637-.8.637-.457 0-.828-.221-.837-.725zm1.4-.793h.242v-.439h.32v.439h.29V6.8h-.29v.785c0 .133.012.2.155.2a.56.56 0 00.135-.011v.25c-.071.006-.138.017-.208.017-.334 0-.4-.131-.4-.375V6.8h-.242v-.243zm1.979.734a1.155 1.155 0 01-.392.088c-.137.023-.261.074-.261.244 0 .145.183.188.3.188.14 0 .36-.074.36-.278v-.242zm.32.409c0 .08.017.111.076.111a.4.4 0 00.078-.006v.225a.793.793 0 01-.2.037c-.13 0-.223-.046-.248-.179a.742.742 0 01-.5.179.444.444 0 01-.5-.429c0-.367.29-.426.56-.458.23-.043.436-.017.436-.207 0-.168-.172-.2-.3-.2-.179 0-.306.074-.32.233h-.32c.022-.378.34-.489.66-.489.284 0 .582.116.582.426V7.7zm.199-1.143h.242v-.439h.321v.439h.289V6.8h-.289v.785c0 .133.011.2.154.2a.56.56 0 00.135-.011v.25c-.07.006-.138.017-.208.017-.334 0-.4-.131-.4-.375V6.8h-.242v-.243zm2.08.606a.374.374 0 10-.747 0zm-.747.213a.389.389 0 00.391.435.337.337 0 00.353-.244h.3a.636.636 0 01-.656.5.693.693 0 01-.711-.773.7.7 0 111.387.082zm1.556.179c.017.188.157.256.329.256.121 0 .331-.026.323-.193s-.242-.191-.476-.245-.466-.136-.466-.435c0-.321.343-.42.607-.42a.537.537 0 01.608.452h-.335c-.028-.154-.155-.2-.3-.2-.093 0-.265.022-.265.15 0 .159.237.182.473.236s.469.139.469.429c0 .35-.348.478-.649.478-.365 0-.638-.165-.644-.512zm3.792.472h-.225l-.053-.239a.722.722 0 01-.6.287.976.976 0 01-.961-1.063.977.977 0 01.961-1.063.792.792 0 01.86.694h-.343a.478.478 0 00-.517-.4c-.43 0-.61.383-.61.772s.18.773.61.773a.513.513 0 00.563-.557h-.534v-.27h.854v1.066zm1.416-.736c0-.253-.126-.517-.413-.517s-.413.264-.413.517.126.52.413.52.413-.265.413-.52zm-1.146 0a.734.734 0 111.466 0 .734.734 0 11-1.466 0zm1.59-.734h.349l.368 1.128h.005l.355-1.128h.331l-.519 1.47h-.361l-.528-1.47zm2.6.606a.374.374 0 10-.748 0zm-.748.213a.39.39 0 00.391.435.338.338 0 00.354-.244h.3a.636.636 0 01-.657.5.693.693 0 01-.711-.773.7.7 0 111.388.082zm1.313-.819h.3v.285a.474.474 0 01.425-.324.7.7 0 01.121.009v.312a1.06 1.06 0 00-.137-.014c-.22 0-.394.179-.394.5v.7h-.32V6.557zm1.039 0h.3v.217h.006a.518.518 0 01.452-.261.461.461 0 01.514.5v1.014h-.32V7.1c0-.23-.095-.329-.284-.329a.356.356 0 00-.351.386v.867h-.321V6.557zm1.613 0h.3v.2h.008a.486.486 0 01.448-.244.411.411 0 01.407.244.524.524 0 01.455-.244c.307 0 .486.136.486.494v1.02h-.32v-.858c0-.233-.014-.395-.265-.395-.216 0-.309.145-.309.392v.861h-.32v-.944c0-.2-.062-.309-.255-.309a.339.339 0 00-.318.381v.872h-.321v-1.47zm3.443.606a.374.374 0 10-.747 0zm-.747.213a.389.389 0 00.391.435.339.339 0 00.354-.244h.3a.637.637 0 01-.657.5.693.693 0 01-.711-.773.7.7 0 111.388.082zm1.312-.819h.3v.217a.52.52 0 01.453-.261.461.461 0 01.514.5v1.014h-.32V7.1c-.006-.23-.1-.329-.284-.329a.356.356 0 00-.351.386v.867h-.321V6.557zm1.468 0h.241v-.439h.32v.439h.29V6.8h-.29v.785c0 .133.011.2.155.2a.56.56 0 00.135-.011v.25c-.071.006-.138.017-.208.017-.334 0-.4-.131-.4-.375V6.8h-.241v-.243zM6.592 36.06h.372l.916 1.495h.005V36.06h.335v2.029h-.371l-.913-1.491h-.009v1.491h-.335V36.06zm2.896 1.294a1.138 1.138 0 01-.394.087c-.138.023-.261.075-.261.245 0 .144.182.187.294.187.141 0 .361-.074.361-.278v-.241zm.319.408c0 .08.018.111.076.111a.494.494 0 00.079 0v.225a.847.847 0 01-.2.036c-.129 0-.222-.045-.248-.179a.733.733 0 01-.5.179.444.444 0 01-.5-.429c0-.366.289-.426.559-.457.231-.043.436-.017.436-.208 0-.167-.171-.2-.3-.2-.18 0-.306.073-.32.232h-.32c.022-.377.34-.488.66-.488.284 0 .581.116.581.426v.755zm.2-1.142h.242v-.44h.32v.44h.29v.242h-.29v.785c0 .132.011.2.155.2a.56.56 0 00.135-.011v.249c-.071.007-.138.018-.208.018-.335 0-.4-.131-.4-.375v-.867h-.242v-.241zm1.093 0h.321v1.469H11.1V36.62zm0-.56h.321v.307H11.1v-.307zm1.745 1.294c0-.253-.126-.517-.413-.517s-.413.264-.413.517.127.519.413.519.413-.264.413-.519zm-1.146 0a.735.735 0 11.733.775.706.706 0 01-.733-.775zm1.734-.734h.3v.217h.005a.52.52 0 01.453-.261.461.461 0 01.514.5v1.008h-.321v-.924c-.005-.229-.1-.328-.283-.328a.356.356 0 00-.352.386v.866h-.32V36.62zm2.509.734a1.122 1.122 0 01-.393.087c-.137.023-.261.075-.261.245 0 .144.182.187.295.187.14 0 .359-.074.359-.278v-.241zm.321.408c0 .08.017.111.076.111a.483.483 0 00.078 0v.225a.829.829 0 01-.2.036c-.129 0-.222-.045-.247-.179a.736.736 0 01-.5.179.443.443 0 01-.5-.429c0-.366.29-.426.56-.457.23-.043.435-.017.435-.208 0-.167-.171-.2-.3-.2-.18 0-.307.073-.321.232h-.32c.022-.377.34-.488.66-.488.284 0 .582.116.582.426v.755zm.354-1.702h.32v2.029h-.32V36.06zm2.85.645a.48.48 0 00-.5-.4c-.43 0-.61.383-.61.773s.18.773.61.773a.519.519 0 00.511-.532h.343a.826.826 0 01-.854.822 1.068 1.068 0 010-2.126.785.785 0 01.851.693zm.633-.085h.3v.285a.468.468 0 01.424-.324.761.761 0 01.121.008v.311a1.287 1.287 0 00-.138-.013c-.219 0-.393.178-.393.5v.7H20.1V36.62zm1.935.606a.374.374 0 10-.747 0zm-.747.213a.389.389 0 00.39.434.338.338 0 00.355-.244h.3a.637.637 0 01-.658.5.694.694 0 01-.711-.773.7.7 0 111.389.083zm1.964.434c.287 0 .408-.264.408-.519 0-.325-.155-.517-.4-.517-.3 0-.408.269-.408.533s.124.5.4.5zm.717.216h-.3v-.2a.481.481 0 01-.45.239c-.458 0-.68-.344-.68-.784 0-.531.312-.764.63-.764a.557.557 0 01.483.23h.006v-.75h.32v2.029zm.357-1.469h.32v1.469h-.32V36.62zm0-.56h.32v.307h-.32v-.307zm.522.56h.242v-.44h.32v.44h.29v.242h-.29v.785c0 .132.012.2.155.2a.56.56 0 00.135-.011v.249a2.059 2.059 0 01-.208.018c-.334 0-.4-.131-.4-.375v-.867h-.242v-.241zm1.886-.56h.352v1.183c0 .273.017.587.472.587s.472-.314.472-.587V36.06h.351v1.3a.825.825 0 01-1.647 0v-1.3zm2.007.56h.3v.217a.518.518 0 01.452-.261.462.462 0 01.515.5v1.008H29.7v-.924c-.005-.229-.1-.328-.283-.328a.356.356 0 00-.352.386v.866h-.32V36.62zm1.622 0h.32v1.469h-.32V36.62zm0-.56h.32v.307h-.32v-.307zm1.747 1.294c0-.253-.126-.517-.412-.517s-.414.264-.414.517.127.519.414.519.412-.264.412-.519zm-1.146 0a.735.735 0 11.734.775.706.706 0 01-.734-.775zm1.736-.734h.3v.217a.52.52 0 01.452-.261.462.462 0 01.515.5v1.008h-.321v-.924c0-.229-.095-.328-.283-.328a.356.356 0 00-.352.386v.866H32.7V36.62zm2.851.663h.612l-.3-.873h-.008l-.3.873zm.123-1.223h.374l.773 2.029h-.377l-.188-.537h-.8l-.188.537H34.9l.77-2.029zm1.945 1.813c.287 0 .408-.264.408-.519 0-.325-.155-.517-.4-.517-.3 0-.408.269-.408.533s.124.5.4.5zm.717.216h-.3v-.2a.482.482 0 01-.45.239c-.458 0-.68-.344-.68-.784 0-.531.311-.764.629-.764a.556.556 0 01.483.23h.006v-.75h.321v2.029zm.348-1.469h.3v.205H39a.483.483 0 01.447-.244.409.409 0 01.407.244.523.523 0 01.456-.244c.306 0 .486.136.486.494v1.014h-.321v-.858c0-.233-.014-.394-.264-.394-.216 0-.309.144-.309.391v.861h-.32v-.943c0-.2-.062-.309-.256-.309a.338.338 0 00-.318.38v.872h-.32V36.62zm2.453 0h.321v1.469h-.321V36.62zm0-.56h.321v.307h-.321v-.307zm.669.56h.3v.217h.005a.52.52 0 01.453-.261.461.461 0 01.514.5v1.008h-.32v-.924c-.006-.229-.1-.328-.284-.328a.356.356 0 00-.351.386v.866h-.321V36.62zm1.622 0h.32v1.469h-.32V36.62zm0-.56h.32v.307h-.32v-.307zm.91 1.557c.017.188.158.256.329.256.121 0 .332-.025.323-.193s-.241-.19-.475-.244-.466-.137-.466-.434c0-.322.343-.421.607-.421.3 0 .568.124.607.451h-.334c-.028-.153-.155-.195-.3-.195-.092 0-.264.022-.264.15 0 .159.236.182.472.236s.47.139.47.429c0 .349-.349.477-.65.477-.365 0-.637-.165-.643-.512zm1.071-.997h.242v-.44h.32v.44h.29v.242h-.29v.785c0 .132.011.2.155.2a.56.56 0 00.135-.011v.249c-.071.007-.138.018-.208.018-.335 0-.4-.131-.4-.375v-.867h-.242v-.241zm1.082 0h.3v.285h.009a.468.468 0 01.424-.324.733.733 0 01.12.008v.311a1.246 1.246 0 00-.137-.013c-.219 0-.394.178-.394.5v.7h-.32V36.62zm1.886.734a1.133 1.133 0 01-.394.087c-.138.023-.261.075-.261.245 0 .144.183.187.3.187.141 0 .36-.074.36-.278v-.241zm.32.408c0 .08.017.111.076.111a.5.5 0 00.079 0v.225a.855.855 0 01-.2.036c-.129 0-.222-.045-.247-.179a.735.735 0 01-.5.179.443.443 0 01-.5-.429c0-.366.289-.426.559-.457.23-.043.435-.017.435-.208 0-.167-.171-.2-.3-.2-.18 0-.306.073-.32.232h-.321c.022-.377.34-.488.661-.488.283 0 .581.116.581.426v.755zm.203-1.142h.242v-.44h.32v.44h.289v.242h-.289v.785c0 .132.011.2.155.2a.548.548 0 00.134-.011v.249a2.085 2.085 0 01-.208.018c-.334 0-.4-.131-.4-.375v-.867H48.9v-.241zm1.087 0h.321v1.469h-.321V36.62zm0-.56h.321v.307h-.321v-.307zm1.748 1.294c0-.253-.126-.517-.413-.517s-.413.264-.413.517.127.519.413.519.413-.264.413-.519zm-1.147 0a.735.735 0 11.734.775.706.706 0 01-.734-.775zm1.734-.734h.3v.217a.518.518 0 01.452-.261.462.462 0 01.515.5v1.008h-.321v-.924c-.006-.229-.095-.328-.284-.328a.356.356 0 00-.351.386v.866h-.321V36.62zm1.639 1.086h.391v.383a.455.455 0 01-.38.449v-.173a.263.263 0 00.183-.276h-.194v-.383zm2.439-.352a1.133 1.133 0 01-.394.087c-.137.023-.261.075-.261.245 0 .144.182.187.295.187.14 0 .36-.074.36-.278v-.241zm.32.408c0 .08.017.111.076.111a.483.483 0 00.078 0v.225a.838.838 0 01-.2.036c-.129 0-.222-.045-.248-.179a.731.731 0 01-.5.179.444.444 0 01-.5-.429c0-.366.289-.426.56-.457.23-.043.436-.017.436-.208 0-.167-.172-.2-.3-.2-.18 0-.307.073-.321.232h-.32c.023-.377.34-.488.66-.488.285 0 .582.116.582.426v.755zm1.144-1.702h.352v1.183c0 .273.017.587.472.587s.472-.314.472-.587V36.06h.352v1.3a.825.825 0 01-1.648 0v-1.3zm2.032 1.646h.391v.383h-.391v-.383zm1.032-.293c0 .313.228.435.509.435.309 0 .424-.153.424-.307a.24.24 0 00-.166-.25c-.141-.054-.323-.091-.6-.168a.514.514 0 01-.445-.514c0-.407.371-.6.734-.6.419 0 .769.224.769.648h-.35c-.017-.262-.191-.358-.433-.358-.163 0-.369.06-.369.264 0 .142.1.222.24.262.03.009.475.124.579.156a.535.535 0 01.39.517c0 .455-.4.637-.8.637-.459 0-.829-.222-.837-.725zm1.571.293h.39v.383h-.39v-.383zm3.333.383h-.225l-.053-.239a.719.719 0 01-.605.288 1.068 1.068 0 010-2.126.792.792 0 01.86.693h-.343a.479.479 0 00-.517-.4c-.43 0-.609.383-.609.773s.179.773.609.773a.514.514 0 00.563-.557h-.534v-.27h.854v1.068zm1.417-.735c0-.253-.127-.517-.414-.517s-.413.264-.413.517.126.519.413.519.414-.264.414-.519zm-1.148 0a.735.735 0 11.734.775.707.707 0 01-.734-.775zm1.591-.734h.349l.368 1.128h.006l.354-1.128h.331l-.52 1.469h-.359l-.529-1.469zm2.6.606a.374.374 0 10-.748 0zm-.748.213a.389.389 0 00.391.434.337.337 0 00.354-.244h.3a.638.638 0 01-.658.5.694.694 0 01-.711-.773.7.7 0 111.388.083zm1.313-.819h.3v.285a.469.469 0 01.424-.324.739.739 0 01.121.008v.311a1.269 1.269 0 00-.137-.013c-.22 0-.394.178-.394.5v.7h-.32V36.62zm1.043 0h.3v.217h.006a.519.519 0 01.452-.261.461.461 0 01.514.5v1.008h-.32v-.924c-.005-.229-.095-.328-.284-.328a.356.356 0 00-.351.386v.866H71.9V36.62zm1.61 0h.3v.205h.007a.487.487 0 01.447-.244.41.41 0 01.408.244.523.523 0 01.456-.244c.306 0 .486.136.486.494v1.014H75.3v-.858c0-.233-.015-.394-.265-.394-.216 0-.309.144-.309.391v.861H74.4v-.943c0-.2-.062-.309-.256-.309a.338.338 0 00-.318.38v.872h-.32V36.62zm3.442.606a.374.374 0 10-.747 0zm-.747.213a.388.388 0 00.391.434.338.338 0 00.354-.244h.3a.637.637 0 01-.657.5.693.693 0 01-.711-.773.7.7 0 111.388.083zm1.312-.819h.3v.217h.007a.516.516 0 01.452-.261.461.461 0 01.514.5v1.008h-.32v-.924c0-.229-.1-.328-.284-.328a.356.356 0 00-.351.386v.866h-.321V36.62zm1.468 0h.241v-.44h.32v.44h.29v.242h-.29v.785c0 .132.011.2.155.2a.56.56 0 00.135-.011v.249a2.059 2.059 0 01-.208.018c-.334 0-.4-.131-.4-.375v-.867h-.241v-.241zm2.321.663h.612l-.3-.873h-.009l-.3.873zm.124-1.223h.37l.774 2.029H82.2l-.188-.537h-.8l-.188.537h-.363l.771-2.029zm2.315 1.262c0-.253-.112-.485-.39-.485s-.382.266-.382.511.114.486.382.486c.283 0 .39-.262.39-.512zm.32.691c0 .441-.255.659-.714.659-.292 0-.62-.114-.649-.458h.321c.039.185.185.216.348.216a.33.33 0 00.374-.375v-.225h-.006a.5.5 0 01-.435.259c-.461 0-.652-.352-.652-.773a.675.675 0 01.657-.735.454.454 0 01.43.241h.006v-.2h.32v1.393zm1.321-.787a.374.374 0 10-.747 0zm-.747.213a.388.388 0 00.39.434.336.336 0 00.354-.244h.3a.637.637 0 01-.658.5.693.693 0 01-.71-.773.7.7 0 111.388.083zm1.312-.819h.3v.217h.005a.52.52 0 01.453-.261.461.461 0 01.514.5v1.008h-.32v-.924c-.006-.229-.1-.328-.284-.328a.356.356 0 00-.351.386v.866h-.321V36.62zm2.594.492a.307.307 0 00-.332-.275c-.165 0-.4.088-.4.533 0 .245.106.5.385.5a.346.346 0 00.345-.335h.32a.627.627 0 01-.665.591.688.688 0 01-.706-.759.7.7 0 01.717-.789.589.589 0 01.654.531zm.422-.492h.351l.379 1.1h.003l.368-1.1h.334l-.564 1.549c-.1.265-.18.5-.514.5a1.491 1.491 0 01-.223-.017v-.272a1.018 1.018 0 00.152.019c.149 0 .186-.08.225-.2l.037-.114-.551-1.464z"/></g></svg>