<svg xmlns="http://www.w3.org/2000/svg" viewBox="0 0 143.077 30"><g fill="#595959" fill-rule="evenodd"><path d="M0 11.521L20.244 0l19.793 11.635v4.049h-3.158V30H3.1V15.684H0v-4.163zm20.243-7.183L7.217 11.981v14.373h25.77V11.981L20.243 4.338z"/><path d="M13.315 17.454v-3.536h13.477v3.536H13.315zm0 1.73h13.477v3.536H13.315v-3.536zM96.113 30V17.863h6.38c4.556 0 7.746 1.383 7.746 6.3 0 4.763-2.886 5.838-7.9 5.838zm3.34-9.53v6.913h2.734c2.582 0 4.405-.461 4.405-3.226 0-2.458-1.975-3.687-4.1-3.687zM129.406 30V17.863h8.81c3.341 0 4.708 1.076 4.708 3.841 0 2-1.063 2.919-3.341 3.226l3.494 5.07h-3.646l-3.493-5.07h-3.19V30zm8.339-9.512h-5.013v1.844h4.861c1.671 0 2.126 0 2.126-.922 0-.768-.607-.922-1.974-.922zM77.8 17.863V30h3.189v-7.374L87.369 30h3.797V17.863h-3.189v7.528l-6.38-7.528H77.8zm-31.316 0V30h11.999v-2.612l-8.658-.153v-9.372h-3.341zM61.919 30h11.696v-2.612h-8.202v-2.611h6.835v-2.458h-6.835v-1.844h8.202v-2.612H61.919V30zm52.059-12.137V30l11.544-.154v-2.458h-8.202v-2.611h6.987v-2.458h-6.987v-1.844h8.202v-2.612h-11.544zM70.29 14.875l3.038-10.907h2.582l3.038 10.907h-2.366l-.672-2.458h-2.734l-.676 2.458zM74.555 6.3l-.911 4.3h1.974l-1.063-4.3zm-21.201 4.584V7.965c0-2.765.911-4.3 3.645-4.3 3.038 0 3.646 1.844 3.646 4.456v2.3a5.542 5.542 0 01-.608 2.919l1.823.614-.152.769c-6.228 0-8.354-.154-8.354-3.841zm2.269-2.769v2.612c0 2 .3 2.612 1.367 2.612 1.215 0 1.367-.461 1.367-2.458V7.962c0-2.151-.152-2.458-1.215-2.458-1.367 0-1.519.614-1.519 2.611zm59.706 3.841c0 1.69 1.064 3.072 3.494 3.072 1.974 0 3.8-1.382 3.8-3.072 0-2.612-4.86-3.841-4.86-5.531 0-.614.607-.922 1.215-.922.911 0 1.366.615 1.822 1.537l1.52-.615c-.153-1.536-1.216-2.765-3.494-2.765-1.823 0-3.342.921-3.342 2.765 0 3.073 4.86 3.841 4.86 5.838 0 .768-.455 1.076-1.366 1.076s-1.519-.615-1.823-1.691l-1.823.308zm-16.468-.615V7.808c0-2.919 1.367-4.148 3.646-4.148 2.886 0 3.645 1.075 3.645 3.84v3.38c0 2.919-.759 4.148-3.645 4.148s-3.646-1.075-3.646-3.687zm2.273-3.686v3.38c0 1.536.152 2.3 1.367 2.3.911 0 1.367-.614 1.367-2.458V7.655c0-1.229-.152-2.305-1.367-2.305s-1.367.922-1.367 2.305zm34.502 3.225c0 3.226.911 4.148 3.949 4.148 2.352 0 3.038-1.115 3.038-2.3V9.191h-3.19v1.689h1.067v1.23c0 .921-.3 1.382-1.063 1.382-1.519 0-1.671-1.075-1.671-2.612V8.422c0-1.843.152-3.072 1.671-3.072 1.063 0 1.67.768 1.823 1.843l1.518-.614c-.151-1.844-1.366-2.919-3.493-2.919-3.038 0-3.645 1.69-3.645 3.994v3.226zM107.1 3.966v6.3c0 3.688.625 4.867 3.815 4.867 2.43 0 3.324-1.333 3.324-4.559V3.966h-2.127v6.3c0 2.458-.152 3.073-1.367 3.073s-1.367-.922-1.367-3.226V3.966zm20.295.002v10.907h1.822V7.501l2.583 7.374h2.733V3.968h-1.822v6.76l-2.431-6.76h-2.885zm-64.566-.002v6.606c0 3.073.3 4.455 3.342 4.455 3.493 0 3.645-1.69 3.645-4.762v-6.3H67.69v6.452c0 2.151-.3 2.766-1.367 2.766-1.216 0-1.367-.615-1.367-3.073V3.966zm27.625.002v10.907h2.127V9.96h2.582v4.915h2.126V3.968h-2.126v4.148h-2.582V3.968h-2.127zm-44.124 0v10.907h5.468v-1.689h-3.342v-3.073h3.038V8.576h-3.038V5.658h3.342v-1.69H46.33zm33.581 0v10.907h5.013v-1.689h-3.19V3.968h-1.823zm43.825 0v10.907h1.974V3.968h-1.974z"/></g></svg>